<?xml version="1.0" encoding="UTF-8"?>
<!DOCTYPE svg PUBLIC "-//W3C//DTD SVG 1.1//EN" "http://www.w3.org/Graphics/SVG/1.1/DTD/svg11.dtd">
<!-- Creator: CorelDRAW -->
<svg xmlns="http://www.w3.org/2000/svg" xml:space="preserve" width="590px" height="588px" version="1.1" style="shape-rendering:geometricPrecision; text-rendering:geometricPrecision; image-rendering:optimizeQuality; fill-rule:evenodd; clip-rule:evenodd"
viewBox="0 0 297.85 296.83"
 xmlns:xlink="http://www.w3.org/1999/xlink"
 xmlns:xodm="http://www.corel.com/coreldraw/odm/2003">
 <defs>
  <style type="text/css">
   <![CDATA[
    .fil0 {fill:#230938}
    .fil1 {fill:#A234FD}
   ]]>
  </style>
 </defs>
 <g id="Camada_x0020_1">
  <metadata id="CorelCorpID_0Corel-Layer"/>
  <g id="_1725417356784">
   <path class="fil0" d="M0 109.99c0,60.75 49.24,110 109.99,110l0.84 76.84c38.16,-36.27 81.12,-94.54 100.19,-143.26 2.26,-5.24 4.13,-10.69 5.56,-16.31l0.02 -0.06 0 0.01c2.21,-8.71 3.39,-17.82 3.39,-27.22 0,-60.74 -49.25,-109.99 -109.99,-109.99 -60.75,0 -110,49.25 -110,109.99z"/>
   <path class="fil1" d="M231.32 61.77c6.9,8.26 17.28,13.51 28.89,13.51 20.78,0 37.64,-16.85 37.64,-37.64 0,-20.79 -16.86,-37.64 -37.64,-37.64 -20.79,0 -37.64,16.85 -37.64,37.64 0,9.18 3.28,17.6 8.75,24.13z"/>
  </g>
 </g>
</svg>
