<?xml version="1.0" encoding="UTF-8"?>
<!DOCTYPE svg PUBLIC "-//W3C//DTD SVG 1.1//EN" "http://www.w3.org/Graphics/SVG/1.1/DTD/svg11.dtd">
<!-- Creator: CorelDRAW -->
<svg xmlns="http://www.w3.org/2000/svg" xml:space="preserve" width="2380px" height="334px" version="1.1" style="shape-rendering:geometricPrecision; text-rendering:geometricPrecision; image-rendering:optimizeQuality; fill-rule:evenodd; clip-rule:evenodd"
viewBox="0 0 2379.87 334.21"
 xmlns:xlink="http://www.w3.org/1999/xlink"
 xmlns:xodm="http://www.corel.com/coreldraw/odm/2003">
 <defs>
  <style type="text/css">
   <![CDATA[
    .fil0 {fill:#230938}
    .fil1 {fill:#A234FD}
    .fil2 {fill:#174AB6;fill-rule:nonzero}
   ]]>
  </style>
 </defs>
 <g id="Camada_x0020_1">
  <metadata id="CorelCorpID_0Corel-Layer"/>
  <path class="fil0" d="M78.45 157.41c10.49,-8.77 17.16,-21.96 17.16,-36.7 0,-26.4 -21.4,-47.8 -47.81,-47.8 -26.4,0 -47.8,21.4 -47.8,47.8 0,26.41 21.4,47.81 47.8,47.81 11.67,0 22.35,-4.18 30.65,-11.11z"/>
  <path class="fil1" d="M78.45 303.73c10.49,-8.77 17.16,-21.95 17.16,-36.69 0,-26.4 -21.4,-47.8 -47.81,-47.8 -26.4,0 -47.8,21.4 -47.8,47.8 0,26.41 21.4,47.81 47.8,47.81 11.67,0 22.35,-4.18 30.65,-11.12z"/>
  <path class="fil0" d="M370.92 157.41c10.49,-8.77 17.16,-21.96 17.16,-36.7 0,-26.4 -21.4,-47.8 -47.81,-47.8 -26.4,0 -47.8,21.4 -47.8,47.8 0,26.41 21.4,47.81 47.8,47.81 11.67,0 22.35,-4.18 30.65,-11.11z"/>
  <path class="fil1" d="M370.92 303.73c10.49,-8.77 17.16,-21.95 17.16,-36.69 0,-26.4 -21.4,-47.8 -47.81,-47.8 -26.4,0 -47.8,21.4 -47.8,47.8 0,26.41 21.4,47.81 47.8,47.81 11.67,0 22.35,-4.18 30.65,-11.12z"/>
  <path class="fil0" d="M225.45 84.49c10.48,-8.76 17.15,-21.95 17.15,-36.69 0,-26.4 -21.4,-47.8 -47.8,-47.8 -26.4,0 -47.81,21.4 -47.81,47.8 0,26.41 21.41,47.81 47.81,47.81 11.66,0 22.35,-4.18 30.65,-11.12z"/>
  <path class="fil0" d="M225.45 230.82c10.48,-8.77 17.15,-21.95 17.15,-36.69 0,-26.4 -21.4,-47.8 -47.8,-47.8 -26.4,0 -47.81,21.4 -47.81,47.8 0,26.41 21.41,47.81 47.81,47.81 11.66,0 22.35,-4.18 30.65,-11.12z"/>
  <path class="fil2" d="M306.64 300.77c54.78,6.6 54.78,6.6 0,0z"/>
  <path class="fil0" d="M592.82 251.97c18.95,10.79 40.39,19.61 64.3,26.46 23.92,6.86 46.96,10.14 69.12,9.85 17.5,0 32.22,-3.21 44.18,-9.63 11.96,-6.41 20.85,-15.16 26.69,-26.24 5.83,-11.09 8.6,-23.77 8.31,-38.06l-1.12 -13.58c-7.88,9.87 -17.71,18.21 -29.48,25.01 -17.94,10.35 -40.03,15.67 -66.28,15.97 -39.37,0.58 -69.7,-9.26 -90.99,-29.53 -21.28,-20.27 -31.93,-49.65 -31.93,-88.15 0,-37.03 9.84,-65.69 29.53,-85.96 19.68,-20.26 47.75,-31.27 84.21,-33.02 26.53,-1.46 49.5,2.55 68.89,12.03 17.99,8.79 32.09,21.41 42.3,37.86l1.87 -49.73 45.05 0 0 209.1c0,37.91 -11.95,67.36 -35.87,88.36 -23.91,21 -58.03,31.5 -102.36,31.5 -18.95,0 -39.15,-2.84 -60.58,-8.53 -21.44,-5.69 -43.38,-13.49 -65.84,-23.41l0 -50.3zm1664.57 -251.53c27.12,-0.29 49.8,4.59 68.02,14.65 18.23,10.06 31.86,24.13 40.9,42.22 9.04,18.08 13.56,39.07 13.56,62.99 0,36.74 -9.84,65.91 -29.52,87.49 -19.69,21.58 -49.51,32.37 -89.46,32.37 -22.75,0 -42.8,-4.67 -60.15,-14 -17.35,-9.33 -30.4,-22.46 -39.15,-39.37l0 138.67 -58.18 0 0 -320.21 56.43 0 1.31 50.74c8.46,-16.62 20.78,-30.03 36.97,-40.24 16.18,-10.21 35.94,-15.31 59.27,-15.31zm-16.19 47.68c-16.62,0 -30.91,2.99 -42.87,8.97 -11.95,5.98 -21.07,14.43 -27.34,25.37 -6.27,10.93 -9.4,23.69 -9.4,38.27 0,22.17 6.93,39.81 20.78,52.94 13.85,13.12 33.46,19.68 58.83,19.68 25.38,0 44.84,-6.56 58.4,-19.68 13.56,-13.13 20.34,-30.77 20.34,-52.94 0,-14.58 -2.99,-27.34 -8.96,-38.27 -5.98,-10.94 -14.88,-19.39 -26.69,-25.37 -11.81,-5.98 -26.17,-8.97 -43.09,-8.97zm-188.57 187.66l-51.18 0 -0.87 -52.05c-6.13,15.45 -18.16,28.58 -36.09,39.37 -17.94,10.79 -36.67,16.18 -56.21,16.18 -21,0 -38.43,-4.23 -52.28,-12.68 -13.85,-8.46 -24.2,-20.86 -31.06,-37.19 -6.85,-16.33 -10.28,-36.6 -10.28,-60.8l0 -123.36 55.56 0 0 128.17c0,18.96 4.81,33.76 14.44,44.4 9.62,10.65 24.2,15.97 43.74,15.97 11.96,0 23.18,-3.36 33.68,-10.06 10.5,-6.71 19.03,-16.04 25.59,-28 6.57,-11.96 9.85,-25.37 9.85,-40.24l0 -110.24 55.11 0 0 230.53zm-677.61 -230.53l61.24 0 61.68 166.23 62.12 -166.23 43.75 0 62.99 166.23 61.24 -166.23 60.8 0 -91.86 230.53 -57.74 0 -57.31 -154.85 -57.3 154.85 -58.18 0 -91.43 -230.53zm-140.44 235.78c-30.62,0 -55.99,-4.52 -76.11,-13.56 -20.12,-9.04 -35.07,-22.45 -44.84,-40.24 -9.77,-17.79 -14.65,-39.96 -14.65,-66.5 0,-40.24 11.23,-70.42 33.68,-90.55 22.46,-20.12 56.43,-30.18 101.92,-30.18 45.79,0 79.77,10.06 101.93,30.18 22.16,20.13 33.24,50.31 33.24,90.55 0,39.67 -11.3,69.63 -33.9,89.9 -22.6,20.27 -56.35,30.4 -101.27,30.4zm0.44 -46.8c25.67,0 45.35,-6.49 59.06,-19.47 13.7,-12.98 20.56,-30.99 20.56,-54.03 0,-23.62 -6.78,-41.84 -20.35,-54.68 -13.55,-12.83 -33.31,-19.24 -59.27,-19.24 -26.24,0 -46.22,6.41 -59.93,19.24 -13.7,12.84 -20.56,31.06 -20.56,54.68 0,23.04 7,41.05 21,54.03 14,12.98 33.83,19.47 59.49,19.47zm-265.56 -188.98l0.88 65.62c10.2,-23.33 25.59,-40.25 46.15,-50.75 20.56,-10.5 45.27,-15.45 74.14,-14.87l-0.43 50.31c-25.08,0 -46.37,3.28 -63.87,9.84 -17.5,6.56 -30.77,16.69 -39.81,30.4 -9.04,13.71 -13.56,32.66 -13.56,56.87l-0.44 83.11 -58.18 0 0.44 -230.09 54.68 -0.44zm-252.41 187.66c15.46,0 29.17,-3.06 41.12,-9.18 11.96,-6.13 21.15,-14.66 27.56,-25.59 6.42,-10.94 9.63,-23.41 9.63,-37.41 0,-15.16 -3.36,-28.14 -10.07,-38.93 -6.7,-10.79 -15.96,-19.1 -27.77,-24.93 -11.81,-5.84 -25.3,-8.75 -40.47,-8.75 -23.33,0 -41.41,6.05 -54.24,18.15 -12.83,12.11 -19.25,30.26 -19.25,54.46 0,23.04 6.42,40.83 19.25,53.37 12.83,12.54 30.91,18.81 54.24,18.81z"/>
 </g>
</svg>
